Dip1990



			Orphan [2009] [Dual-Audio] [English+Hindi]_Dip1990



General
Complete name                    : Orphan [2009] [Dual-Audio]
Format                           : Matroska
File size                        : 1.05 GiB
Duration                         : 2h 2mn
Overall bit rate                 : 1 225 Kbps
Movie name                       : Orphan
Encoded date                     : UTC 2010-12-07 20:05:05
Writing application              : mkvmerge v4.4.0 ('Die Wiederkehr') built on Oct 31 2010 21:52:48
Writing library                  : libebml v1.0.0 + libmatroska v1.0.0
Cover                            : Yes

Video
ID                               : 1
Format                           : AVC
Format/Info                      : Advanced Video Codec
Format profile                   : High@L3.0
Format settings, CABAC           : Yes
Format settings, ReFrames        : 4 frames
Muxing mode                      : Header stripping
Codec ID                         : V_MPEG4/ISO/AVC
Duration                         : 2h 2mn
Bit rate                         : 963 Kbps
Width                            : 720 pixels
Height                           : 480 pixels
Display aspect ratio             : 16:9
Frame rate                       : 23.976 fps
Standard                         : NTSC
Color space                      : YUV
Chroma subsampling               : 4:2:0
Bit depth                        : 8 bits
Scan type                        : Progressive
Bits/(Pixel*Frame)               : 0.116
Stream size                      : 847 MiB (79%)
Title                            : Orphan
Language                         : English

Audio #1
ID                               : 2
Format                           : MPEG Audio
Format version                   : Version 1
Format profile                   : Layer 3
Mode                             : Joint stereo
Mode extension                   : MS Stereo
Muxing mode                      : Header stripping
Codec ID                         : A_MPEG/L3
Codec ID/Hint                    : MP3
Duration                         : 2h 2mn
Bit rate mode                    : Variable
Bit rate                         : 85.8 Kbps
Minimum bit rate                 : 32.0 Kbps
Channel(s)                       : 2 channels
Sampling rate                    : 48.0 KHz
Compression mode                 : Lossy
Stream size                      : 75.4 MiB (7%)
Title                            : Orphan - English
Writing library                  : LAME3.98r
Encoding settings                : -m j -V 6 -q 3 -lowpass 15.6 --vbr-old -b 32
Language                         : English

Audio #2
ID                               : 3
Format                           : MPEG Audio
Format version                   : Version 1
Format profile                   : Layer 3
Mode                             : Joint stereo
Mode extension                   : MS Stereo
Muxing mode                      : Header stripping
Codec ID                         : A_MPEG/L3
Codec ID/Hint                    : MP3
Duration                         : 2h 2mn
Bit rate mode                    : Variable
Bit rate                         : 152 Kbps
Minimum bit rate                 : 32.0 Kbps
Channel(s)                       : 2 channels
Sampling rate                    : 48.0 KHz
Compression mode                 : Lossy
Stream size                      : 133 MiB (12%)
Title                            : Orphan - Hindi
Writing library                  : LAME3.98r
Encoding settings                : -m j -V 0 -q 3 -lowpass 19.5 --vbr-old -b 32
Language                         : Hindi

Screens: 
http://img535.imageshack.us/img535/6462/orphan2009dualaudioengl.jpg 
http://img211.imageshack.us/img211/6462/orphan2009dualaudioengl.jpg 
http://img137.imageshack.us/img137/6462/orphan2009dualaudioengl.jpg 
http://img715.imageshack.us/img715/6462/orphan2009dualaudioengl.jpg 
http://img163.imageshack.us/img163/6462/orphan2009dualaudioengl.jpg 
http://img440.imageshack.us/img440/6462/orphan2009dualaudioengl.jpg

Sample: